# xmcd
#
# Track frame offsets:
#	150
#	11750
#	23678
#	32905
#	47457
#	63434
#	80825
#	93774
#	106619
#	124557
#	139297
#	150549
#	161890
#
# Disc length: 2352 seconds
#
# Revision: 0
# Processed by: cddbd v1.5.1PL0 Copyright (c) Steve Scherf et al.
# Submitted via: dBpowerAMP V4.0
#
DISCID=9c092e0d
DTITLE=midnight flyer - country line dance  songs 
DYEAR=1900
DGENRE=line dance
TTITLE0=amarillo by morning
TTITLE1=crazy
TTITLE2=all shook up
TTITLE3=all my ex's live in texas
TTITLE4=forever and ever, amen
TTITLE5=he thinks he'll keep her
TTITLE6=on the otherhand
TTITLE7=passionate kisses
TTITLE8=piece of my heart
TTITLE9=the thunder rolls
TTITLE10=a little too late 
TTITLE11=time has ncome
TTITLE12=somewhere between
EXTD=
EXTT0=
EXTT1=
EXTT2=
EXTT3=
EXTT4=
EXTT5=
EXTT6=
EXTT7=
EXTT8=
EXTT9=
EXTT10=
EXTT11=
EXTT12=
PLAYORDER=
